<svg xmlns="http://www.w3.org/2000/svg" xmlns:xlink="http://www.w3.org/1999/xlink" width="800" height="600" class="main-svg" viewBox="0 0 800 600"><rect width="800" height="600" x="0" y="0" fill="#FFF" fill-opacity="1"/><defs id="defs-6e05cc"><g class="clips"><clipPath id="clip6e05ccxyplot" class="plotclip"><rect width="601" height="420"/></clipPath><clipPath id="clip6e05ccx" class="axesclip"><rect width="601" height="600" x="80" y="0"/></clipPath><clipPath id="clip6e05ccy" class="axesclip"><rect width="800" height="420" x="0" y="100"/></clipPath><clipPath id="clip6e05ccxy" class="axesclip"><rect width="601" height="420" x="80" y="100"/></clipPath></g></defs><g class="cartesianlayer"><g class="subplot xy"><g class="gridlayer"><g class="x"><path stroke="#EEE" stroke-opacity="1" stroke-width="1" d="M0,100v420" class="xgrid crisp" transform="translate(113.8,0)"/><path stroke="#EEE" stroke-opacity="1" stroke-width="1" d="M0,100v420" class="xgrid crisp" transform="translate(194.69,0)"/><path stroke="#EEE" stroke-opacity="1" stroke-width="1" d="M0,100v420" class="xgrid crisp" transform="translate(275.57,0)"/><path stroke="#EEE" stroke-opacity="1" stroke-width="1" d="M0,100v420" class="xgrid crisp" transform="translate(356.46,0)"/><path stroke="#EEE" stroke-opacity="1" stroke-width="1" d="M0,100v420" class="xgrid crisp" transform="translate(437.34,0)"/><path stroke="#EEE" stroke-opacity="1" stroke-width="1" d="M0,100v420" class="xgrid crisp" transform="translate(599.11,0)"/></g><g class="y"><path stroke="#EEE" stroke-opacity="1" stroke-width="1" d="M80,0h601" class="ygrid crisp" transform="translate(0,489.16)"/><path stroke="#EEE" stroke-opacity="1" stroke-width="1" d="M80,0h601" class="ygrid crisp" transform="translate(0,418.84)"/><path stroke="#EEE" stroke-opacity="1" stroke-width="1" d="M80,0h601" class="ygrid crisp" transform="translate(0,348.52)"/><path stroke="#EEE" stroke-opacity="1" stroke-width="1" d="M80,0h601" class="ygrid crisp" transform="translate(0,278.2)"/><path stroke="#EEE" stroke-opacity="1" stroke-width="1" d="M80,0h601" class="ygrid crisp" transform="translate(0,137.57)"/></g></g><g class="zerolinelayer"><path stroke="#444" stroke-opacity="1" stroke-width="1" d="M0,100v420" class="xzl zl crisp" transform="translate(518.23,0)"/><path stroke="#444" stroke-opacity="1" stroke-width="1" d="M80,0h601" class="yzl zl crisp" transform="translate(0,207.88)"/></g><path class="xlines-below"/><path class="ylines-below"/><g class="plot" clip-path="url('#clip6e05ccxyplot')" transform="translate(80, 100)"><g class="scatterlayer mlayer"><g stroke-miterlimit="2" class="trace scatter trace6def53" opacity="1"><g class="errorbars"><g class="errorbar"><path stroke="#1F77B4" stroke-opacity="1" stroke-width="2" d="M393.79,134.6h8m-4,0V165.54m-4,0h8" class="yerror" vector-effect="non-scaling-stroke"/></g><g class="errorbar"><path stroke="#1F77B4" stroke-opacity="1" stroke-width="2" d="M353.34,144.45h8m-4,0V192.27m-4,0h8" class="yerror" vector-effect="non-scaling-stroke"/></g><g class="errorbar"><path stroke="#1F77B4" stroke-opacity="1" stroke-width="2" d="M312.9,154.29h8m-4,0V207.73m-4,0h8" class="yerror" vector-effect="non-scaling-stroke"/></g><g class="errorbar"><path stroke="#1F77B4" stroke-opacity="1" stroke-width="2" d="M272.46,195.08h8m-4,0V248.52m-4,0h8" class="yerror" vector-effect="non-scaling-stroke"/></g><g class="errorbar"><path stroke="#1F77B4" stroke-opacity="1" stroke-width="2" d="M232.01,244.3h8m-4,0V292.12m-4,0h8" class="yerror" vector-effect="non-scaling-stroke"/></g><g class="errorbar"><path stroke="#1F77B4" stroke-opacity="1" stroke-width="2" d="M191.57,265.4h8m-4,0V307.59m-4,0h8" class="yerror" vector-effect="non-scaling-stroke"/></g><g class="errorbar"><path stroke="#1F77B4" stroke-opacity="1" stroke-width="2" d="M151.13,285.08h8m-4,0V338.53m-4,0h8" class="yerror" vector-effect="non-scaling-stroke"/></g><g class="errorbar"><path stroke="#1F77B4" stroke-opacity="1" stroke-width="2" d="M110.69,327.28h8m-4,0V375.09m-4,0h8" class="yerror" vector-effect="non-scaling-stroke"/></g><g class="errorbar"><path stroke="#1F77B4" stroke-opacity="1" stroke-width="2" d="M70.24,327.28h8m-4,0V375.09m-4,0h8" class="yerror" vector-effect="non-scaling-stroke"/></g><g class="errorbar"><path stroke="#1F77B4" stroke-opacity="1" stroke-width="2" d="M29.799999999999997,354h8m-4,0V399m-4,0h8" class="yerror" vector-effect="non-scaling-stroke"/></g></g><g class="lines"><path fill="none" stroke="#1F77B4" stroke-opacity="1" stroke-width="2" d="M397.79,150.07L357.34,168.36L316.9,181.01L276.46,221.8L236.01,268.21L195.57,286.49L155.13,311.81L114.69,351.18L74.24,351.18L33.8,376.5" class="js-line" opacity="1" vector-effect="non-scaling-stroke"/></g><g class="points"><path fill="#1F77B4" fill-opacity="1" stroke-width="0" d="M3,0A3,3 0 1,1 0,-3A3,3 0 0,1 3,0Z" class="point" opacity="1" transform="translate(397.79,150.07)"/><path fill="#1F77B4" fill-opacity="1" stroke-width="0" d="M3,0A3,3 0 1,1 0,-3A3,3 0 0,1 3,0Z" class="point" opacity="1" transform="translate(357.34,168.36)"/><path fill="#1F77B4" fill-opacity="1" stroke-width="0" d="M3,0A3,3 0 1,1 0,-3A3,3 0 0,1 3,0Z" class="point" opacity="1" transform="translate(316.9,181.01)"/><path fill="#1F77B4" fill-opacity="1" stroke-width="0" d="M3,0A3,3 0 1,1 0,-3A3,3 0 0,1 3,0Z" class="point" opacity="1" transform="translate(276.46,221.8)"/><path fill="#1F77B4" fill-opacity="1" stroke-width="0" d="M3,0A3,3 0 1,1 0,-3A3,3 0 0,1 3,0Z" class="point" opacity="1" transform="translate(236.01,268.21)"/><path fill="#1F77B4" fill-opacity="1" stroke-width="0" d="M3,0A3,3 0 1,1 0,-3A3,3 0 0,1 3,0Z" class="point" opacity="1" transform="translate(195.57,286.49)"/><path fill="#1F77B4" fill-opacity="1" stroke-width="0" d="M3,0A3,3 0 1,1 0,-3A3,3 0 0,1 3,0Z" class="point" opacity="1" transform="translate(155.13,311.81)"/><path fill="#1F77B4" fill-opacity="1" stroke-width="0" d="M3,0A3,3 0 1,1 0,-3A3,3 0 0,1 3,0Z" class="point" opacity="1" transform="translate(114.69,351.18)"/><path fill="#1F77B4" fill-opacity="1" stroke-width="0" d="M3,0A3,3 0 1,1 0,-3A3,3 0 0,1 3,0Z" class="point" opacity="1" transform="translate(74.24,351.18)"/><path fill="#1F77B4" fill-opacity="1" stroke-width="0" d="M3,0A3,3 0 1,1 0,-3A3,3 0 0,1 3,0Z" class="point" opacity="1" transform="translate(33.8,376.5)"/></g></g><g stroke-miterlimit="2" class="trace scatter traceaeb2ca" opacity="1"><g class="errorbars"><g class="errorbar"><path stroke="#FF7F0E" stroke-opacity="1" stroke-width="2" d="M393.79,106.48h8m-4,0V134.6m-4,0h8" class="yerror" vector-effect="non-scaling-stroke"/></g><g class="errorbar"><path stroke="#FF7F0E" stroke-opacity="1" stroke-width="2" d="M353.34,133.2h8m-4,0V155.7m-4,0h8" class="yerror" vector-effect="non-scaling-stroke"/></g><g class="errorbar"><path stroke="#FF7F0E" stroke-opacity="1" stroke-width="2" d="M312.9,143.04h8m-4,0V176.8m-4,0h8" class="yerror" vector-effect="non-scaling-stroke"/></g><g class="errorbar"><path stroke="#FF7F0E" stroke-opacity="1" stroke-width="2" d="M272.46,168.36h8m-4,0V185.23m-4,0h8" class="yerror" vector-effect="non-scaling-stroke"/></g><g class="errorbar"><path stroke="#FF7F0E" stroke-opacity="1" stroke-width="2" d="M232.01,172.58h8m-4,0V197.89m-4,0h8" class="yerror" vector-effect="non-scaling-stroke"/></g><g class="errorbar"><path stroke="#FF7F0E" stroke-opacity="1" stroke-width="2" d="M191.57,196.48h8m-4,0V218.99m-4,0h8" class="yerror" vector-effect="non-scaling-stroke"/></g><g class="errorbar"><path stroke="#FF7F0E" stroke-opacity="1" stroke-width="2" d="M151.13,195.08h8m-4,0V226.02m-4,0h8" class="yerror" vector-effect="non-scaling-stroke"/></g><g class="errorbar"><path stroke="#FF7F0E" stroke-opacity="1" stroke-width="2" d="M110.69,217.58h8m-4,0V245.71m-4,0h8" class="yerror" vector-effect="non-scaling-stroke"/></g><g class="errorbar"><path stroke="#FF7F0E" stroke-opacity="1" stroke-width="2" d="M70.24,245.71h8m-4,0V265.4m-4,0h8" class="yerror" vector-effect="non-scaling-stroke"/></g><g class="errorbar"><path stroke="#FF7F0E" stroke-opacity="1" stroke-width="2" d="M29.799999999999997,252.74h8m-4,0V275.24m-4,0h8" class="yerror" vector-effect="non-scaling-stroke"/></g></g><g class="lines"><path fill="none" stroke="#FF7F0E" stroke-opacity="1" stroke-width="2" d="M397.79,120.54L357.34,144.45L316.9,159.92L276.46,176.8L236.01,185.23L195.57,207.73L155.13,210.55L114.69,231.64L74.24,255.55L33.8,263.99" class="js-line" opacity="1" vector-effect="non-scaling-stroke"/></g><g class="points"><path fill="#FF7F0E" fill-opacity="1" stroke-width="0" d="M3,0A3,3 0 1,1 0,-3A3,3 0 0,1 3,0Z" class="point" opacity="1" transform="translate(397.79,120.54)"/><path fill="#FF7F0E" fill-opacity="1" stroke-width="0" d="M3,0A3,3 0 1,1 0,-3A3,3 0 0,1 3,0Z" class="point" opacity="1" transform="translate(357.34,144.45)"/><path fill="#FF7F0E" fill-opacity="1" stroke-width="0" d="M3,0A3,3 0 1,1 0,-3A3,3 0 0,1 3,0Z" class="point" opacity="1" transform="translate(316.9,159.92)"/><path fill="#FF7F0E" fill-opacity="1" stroke-width="0" d="M3,0A3,3 0 1,1 0,-3A3,3 0 0,1 3,0Z" class="point" opacity="1" transform="translate(276.46,176.8)"/><path fill="#FF7F0E" fill-opacity="1" stroke-width="0" d="M3,0A3,3 0 1,1 0,-3A3,3 0 0,1 3,0Z" class="point" opacity="1" transform="translate(236.01,185.23)"/><path fill="#FF7F0E" fill-opacity="1" stroke-width="0" d="M3,0A3,3 0 1,1 0,-3A3,3 0 0,1 3,0Z" class="point" opacity="1" transform="translate(195.57,207.73)"/><path fill="#FF7F0E" fill-opacity="1" stroke-width="0" d="M3,0A3,3 0 1,1 0,-3A3,3 0 0,1 3,0Z" class="point" opacity="1" transform="translate(155.13,210.55)"/><path fill="#FF7F0E" fill-opacity="1" stroke-width="0" d="M3,0A3,3 0 1,1 0,-3A3,3 0 0,1 3,0Z" class="point" opacity="1" transform="translate(114.69,231.64)"/><path fill="#FF7F0E" fill-opacity="1" stroke-width="0" d="M3,0A3,3 0 1,1 0,-3A3,3 0 0,1 3,0Z" class="point" opacity="1" transform="translate(74.24,255.55)"/><path fill="#FF7F0E" fill-opacity="1" stroke-width="0" d="M3,0A3,3 0 1,1 0,-3A3,3 0 0,1 3,0Z" class="point" opacity="1" transform="translate(33.8,263.99)"/></g></g></g></g><path fill="none" d="M0,0" class="xlines-above crisp"/><path fill="none" d="M0,0" class="ylines-above crisp"/><g class="xaxislayer-above"><g class="xtick"><text style="white-space:pre" x="0" y="533" fill="#444" fill-opacity="1" font-family="'Open Sans', verdana, arial, sans-serif" font-size="12" text-anchor="middle" transform="translate(113.8,0)">−1</text></g><g class="xtick"><text style="white-space:pre" x="0" y="533" fill="#444" fill-opacity="1" font-family="'Open Sans', verdana, arial, sans-serif" font-size="12" text-anchor="middle" transform="translate(194.69,0)">−0.8</text></g><g class="xtick"><text style="white-space:pre" x="0" y="533" fill="#444" fill-opacity="1" font-family="'Open Sans', verdana, arial, sans-serif" font-size="12" text-anchor="middle" transform="translate(275.57,0)">−0.6</text></g><g class="xtick"><text style="white-space:pre" x="0" y="533" fill="#444" fill-opacity="1" font-family="'Open Sans', verdana, arial, sans-serif" font-size="12" text-anchor="middle" transform="translate(356.46,0)">−0.4</text></g><g class="xtick"><text style="white-space:pre" x="0" y="533" fill="#444" fill-opacity="1" font-family="'Open Sans', verdana, arial, sans-serif" font-size="12" text-anchor="middle" transform="translate(437.34,0)">−0.2</text></g><g class="xtick"><text style="white-space:pre" x="0" y="533" fill="#444" fill-opacity="1" font-family="'Open Sans', verdana, arial, sans-serif" font-size="12" text-anchor="middle" transform="translate(518.23,0)">0</text></g><g class="xtick"><text style="white-space:pre" x="0" y="533" fill="#444" fill-opacity="1" font-family="'Open Sans', verdana, arial, sans-serif" font-size="12" text-anchor="middle" transform="translate(599.11,0)">0.2</text></g><g class="xtick"><text style="white-space:pre" x="0" y="533" fill="#444" fill-opacity="1" font-family="'Open Sans', verdana, arial, sans-serif" font-size="12" text-anchor="middle" transform="translate(680,0)">0.4</text></g></g><g class="yaxislayer-above"><g class="ytick"><text style="white-space:pre" x="79" y="4.2" fill="#444" fill-opacity="1" font-family="'Open Sans', verdana, arial, sans-serif" font-size="12" text-anchor="end" transform="translate(0,489.16)">−2</text></g><g class="ytick"><text style="white-space:pre" x="79" y="4.2" fill="#444" fill-opacity="1" font-family="'Open Sans', verdana, arial, sans-serif" font-size="12" text-anchor="end" transform="translate(0,418.84)">−1.5</text></g><g class="ytick"><text style="white-space:pre" x="79" y="4.2" fill="#444" fill-opacity="1" font-family="'Open Sans', verdana, arial, sans-serif" font-size="12" text-anchor="end" transform="translate(0,348.52)">−1</text></g><g class="ytick"><text style="white-space:pre" x="79" y="4.2" fill="#444" fill-opacity="1" font-family="'Open Sans', verdana, arial, sans-serif" font-size="12" text-anchor="end" transform="translate(0,278.2)">−0.5</text></g><g class="ytick"><text style="white-space:pre" x="79" y="4.2" fill="#444" fill-opacity="1" font-family="'Open Sans', verdana, arial, sans-serif" font-size="12" text-anchor="end" transform="translate(0,207.88)">0</text></g><g class="ytick"><text style="white-space:pre" x="79" y="4.2" fill="#444" fill-opacity="1" font-family="'Open Sans', verdana, arial, sans-serif" font-size="12" text-anchor="end" transform="translate(0,137.57)">0.5</text></g></g></g></g><defs id="topdefs-6e05cc"><clipPath id="legend6e05cc"><rect width="95" height="48" x="0" y="0"/></clipPath></defs><g class="layer-above"><g class="shapelayer"><path fill="#000" fill-opacity="0" fill-rule="evenodd" stroke="#000" stroke-dasharray="3 3" stroke-opacity="1" stroke-width="2" d="M477.79,250.07L680,158.66" clip-path="url('#clip6e05ccxy')" data-index="0" opacity="1"/><path fill="#000" fill-opacity="0" fill-rule="evenodd" stroke="#000" stroke-dasharray="3 3" stroke-opacity="1" stroke-width="2" d="M477.79,220.54000000000002L680,101" clip-path="url('#clip6e05ccxy')" data-index="1" opacity="1"/></g></g><g class="infolayer"><g class="legend" pointer-events="all" transform="translate(693.02, 100)"><rect width="95" height="48" x="0" y="0" fill="#FFF" fill-opacity="1" stroke="#444" stroke-opacity="1" stroke-width="0" class="bg" shape-rendering="crispEdges"/><g class="scrollbox" clip-path="url('#legend6e05cc')" transform="translate(0, 0)"><g class="groups"><g class="traces" opacity="1" transform="translate(0, 14.5)"><text style="white-space:pre" x="40" y="4.68" fill="#444" fill-opacity="1" class="legendtext user-select-none" font-family="'Open Sans', verdana, arial, sans-serif" font-size="12" text-anchor="start">Desktop</text><g class="layers" opacity="1"><g class="legendlines"><path fill="none" stroke="#1F77B4" stroke-opacity="1" stroke-width="2" d="M5,0h30" class="js-line"/></g><g class="legendsymbols"><g class="legendpoints"><path fill="#1F77B4" fill-opacity="1" stroke-width="0" d="M3,0A3,3 0 1,1 0,-3A3,3 0 0,1 3,0Z" class="scatterpts" opacity="1" transform="translate(20,0)"/></g></g></g><rect width="89.25" height="19" x="0" y="-9.5" fill="#000" fill-opacity="0" class="legendtoggle" cursor="pointer" pointer-events="all"/></g><g class="traces" opacity="1" transform="translate(0, 33.5)"><text style="white-space:pre" x="40" y="4.68" fill="#444" fill-opacity="1" class="legendtext user-select-none" font-family="'Open Sans', verdana, arial, sans-serif" font-size="12" text-anchor="start">Mobile</text><g class="layers" opacity="1"><g class="legendlines"><path fill="none" stroke="#FF7F0E" stroke-opacity="1" stroke-width="2" d="M5,0h30" class="js-line"/></g><g class="legendsymbols"><g class="legendpoints"><path fill="#FF7F0E" fill-opacity="1" stroke-width="0" d="M3,0A3,3 0 1,1 0,-3A3,3 0 0,1 3,0Z" class="scatterpts" opacity="1" transform="translate(20,0)"/></g></g></g><rect width="89.25" height="19" x="0" y="-9.5" fill="#000" fill-opacity="0" class="legendtoggle" cursor="pointer" pointer-events="all"/></g></g></g><rect width="0" height="0" x="0" y="0" fill="#808BA4" fill-opacity="1" class="scrollbar" rx="20" ry="3"/></g><g class="g-gtitle"><text font-family="'Open Sans', verdana, arial, sans-serif" style="white-space:pre" x="400" y="50" fill="#444" class="gtitle" dy="0em" font-size="17" font-weight="normal" opacity="1" text-anchor="middle"><tspan x="400" y="50" class="line" dy="0em"><tspan font-weight="bold">Ad latency injected vs. impressions change</tspan></tspan><tspan x="400" y="50" class="line" dy="1.3em">(95% confidence interval error bars)</tspan></text></g><g class="g-xtitle"><text style="white-space:pre" x="380.5" y="572" fill="#444" class="xtitle" font-family="'Open Sans', verdana, arial, sans-serif" font-size="14" font-weight="normal" opacity="1" text-anchor="middle">Ad latency injected (sec)</text></g><g class="g-ytitle"><text font-size="14" style="white-space:pre" x="42" y="310" fill="#444" class="ytitle" font-family="'Open Sans', verdana, arial, sans-serif" font-weight="normal" opacity="1" text-anchor="middle" transform="rotate(-90,42,310)">Impressions change (%)</text></g></g></svg>