<svg xmlns="http://www.w3.org/2000/svg" xmlns:xlink="http://www.w3.org/1999/xlink" width="800" height="600" class="main-svg" viewBox="0 0 800 600"><rect width="800" height="600" x="0" y="0" fill="#FFF" fill-opacity="1"/><defs id="defs-465192"><g class="clips"><clipPath id="clip465192xyplot" class="plotclip"><rect width="601" height="420"/></clipPath><clipPath id="clip465192x" class="axesclip"><rect width="601" height="600" x="80" y="0"/></clipPath><clipPath id="clip465192y" class="axesclip"><rect width="800" height="420" x="0" y="100"/></clipPath><clipPath id="clip465192xy" class="axesclip"><rect width="601" height="420" x="80" y="100"/></clipPath></g></defs><g class="cartesianlayer"><g class="subplot xy"><g class="gridlayer"><g class="x"><path stroke="#EEE" stroke-opacity="1" stroke-width="1" d="M0,100v420" class="xgrid crisp" transform="translate(113.8,0)"/><path stroke="#EEE" stroke-opacity="1" stroke-width="1" d="M0,100v420" class="xgrid crisp" transform="translate(194.69,0)"/><path stroke="#EEE" stroke-opacity="1" stroke-width="1" d="M0,100v420" class="xgrid crisp" transform="translate(275.57,0)"/><path stroke="#EEE" stroke-opacity="1" stroke-width="1" d="M0,100v420" class="xgrid crisp" transform="translate(356.46,0)"/><path stroke="#EEE" stroke-opacity="1" stroke-width="1" d="M0,100v420" class="xgrid crisp" transform="translate(437.34,0)"/><path stroke="#EEE" stroke-opacity="1" stroke-width="1" d="M0,100v420" class="xgrid crisp" transform="translate(599.11,0)"/></g><g class="y"><path stroke="#EEE" stroke-opacity="1" stroke-width="1" d="M80,0h601" class="ygrid crisp" transform="translate(0,445.48)"/><path stroke="#EEE" stroke-opacity="1" stroke-width="1" d="M80,0h601" class="ygrid crisp" transform="translate(0,370.1)"/><path stroke="#EEE" stroke-opacity="1" stroke-width="1" d="M80,0h601" class="ygrid crisp" transform="translate(0,294.72)"/><path stroke="#EEE" stroke-opacity="1" stroke-width="1" d="M80,0h601" class="ygrid crisp" transform="translate(0,143.97)"/></g></g><g class="zerolinelayer"><path stroke="#444" stroke-opacity="1" stroke-width="1" d="M0,100v420" class="xzl zl crisp" transform="translate(518.23,0)"/><path stroke="#444" stroke-opacity="1" stroke-width="1" d="M80,0h601" class="yzl zl crisp" transform="translate(0,219.34)"/></g><path class="xlines-below"/><path class="ylines-below"/><g class="plot" clip-path="url('#clip465192xyplot')" transform="translate(80, 100)"><g class="scatterlayer mlayer"><g stroke-miterlimit="2" class="trace scatter tracedbe790" opacity="1"><g class="errorbars"><g class="errorbar"><path stroke="#1F77B4" stroke-opacity="1" stroke-width="2" d="M393.79,132.16h8m-4,0V148.74m-4,0h8" class="yerror" vector-effect="non-scaling-stroke"/></g><g class="errorbar"><path stroke="#1F77B4" stroke-opacity="1" stroke-width="2" d="M353.34,147.23h8m-4,0V165.33m-4,0h8" class="yerror" vector-effect="non-scaling-stroke"/></g><g class="errorbar"><path stroke="#1F77B4" stroke-opacity="1" stroke-width="2" d="M312.9,174.37h8m-4,0V196.98m-4,0h8" class="yerror" vector-effect="non-scaling-stroke"/></g><g class="errorbar"><path stroke="#1F77B4" stroke-opacity="1" stroke-width="2" d="M272.46,196.23h8m-4,0V212.81m-4,0h8" class="yerror" vector-effect="non-scaling-stroke"/></g><g class="errorbar"><path stroke="#1F77B4" stroke-opacity="1" stroke-width="2" d="M232.01,209.05h8m-4,0V228.64m-4,0h8" class="yerror" vector-effect="non-scaling-stroke"/></g><g class="errorbar"><path stroke="#1F77B4" stroke-opacity="1" stroke-width="2" d="M191.57,230.15h8m-4,0V252.77m-4,0h8" class="yerror" vector-effect="non-scaling-stroke"/></g><g class="errorbar"><path stroke="#1F77B4" stroke-opacity="1" stroke-width="2" d="M151.13,249h8m-4,0V273.12m-4,0h8" class="yerror" vector-effect="non-scaling-stroke"/></g><g class="errorbar"><path stroke="#1F77B4" stroke-opacity="1" stroke-width="2" d="M110.69,261.81h8m-4,0V290.45m-4,0h8" class="yerror" vector-effect="non-scaling-stroke"/></g><g class="errorbar"><path stroke="#1F77B4" stroke-opacity="1" stroke-width="2" d="M70.24,297.99h8m-4,0V319.1m-4,0h8" class="yerror" vector-effect="non-scaling-stroke"/></g><g class="errorbar"><path stroke="#1F77B4" stroke-opacity="1" stroke-width="2" d="M29.799999999999997,324.38h8m-4,0V350m-4,0h8" class="yerror" vector-effect="non-scaling-stroke"/></g></g><g class="lines"><path fill="none" stroke="#1F77B4" stroke-opacity="1" stroke-width="2" d="M397.79,140.45L357.34,156.28L316.9,185.68L276.46,204.52L236.01,218.84L195.57,241.46L155.13,261.06L114.69,276.13L74.24,308.55L33.8,337.19" class="js-line" opacity="1" vector-effect="non-scaling-stroke"/></g><g class="points"><path fill="#1F77B4" fill-opacity="1" stroke-width="0" d="M3,0A3,3 0 1,1 0,-3A3,3 0 0,1 3,0Z" class="point" opacity="1" transform="translate(397.79,140.45)"/><path fill="#1F77B4" fill-opacity="1" stroke-width="0" d="M3,0A3,3 0 1,1 0,-3A3,3 0 0,1 3,0Z" class="point" opacity="1" transform="translate(357.34,156.28)"/><path fill="#1F77B4" fill-opacity="1" stroke-width="0" d="M3,0A3,3 0 1,1 0,-3A3,3 0 0,1 3,0Z" class="point" opacity="1" transform="translate(316.9,185.68)"/><path fill="#1F77B4" fill-opacity="1" stroke-width="0" d="M3,0A3,3 0 1,1 0,-3A3,3 0 0,1 3,0Z" class="point" opacity="1" transform="translate(276.46,204.52)"/><path fill="#1F77B4" fill-opacity="1" stroke-width="0" d="M3,0A3,3 0 1,1 0,-3A3,3 0 0,1 3,0Z" class="point" opacity="1" transform="translate(236.01,218.84)"/><path fill="#1F77B4" fill-opacity="1" stroke-width="0" d="M3,0A3,3 0 1,1 0,-3A3,3 0 0,1 3,0Z" class="point" opacity="1" transform="translate(195.57,241.46)"/><path fill="#1F77B4" fill-opacity="1" stroke-width="0" d="M3,0A3,3 0 1,1 0,-3A3,3 0 0,1 3,0Z" class="point" opacity="1" transform="translate(155.13,261.06)"/><path fill="#1F77B4" fill-opacity="1" stroke-width="0" d="M3,0A3,3 0 1,1 0,-3A3,3 0 0,1 3,0Z" class="point" opacity="1" transform="translate(114.69,276.13)"/><path fill="#1F77B4" fill-opacity="1" stroke-width="0" d="M3,0A3,3 0 1,1 0,-3A3,3 0 0,1 3,0Z" class="point" opacity="1" transform="translate(74.24,308.55)"/><path fill="#1F77B4" fill-opacity="1" stroke-width="0" d="M3,0A3,3 0 1,1 0,-3A3,3 0 0,1 3,0Z" class="point" opacity="1" transform="translate(33.8,337.19)"/></g></g><g stroke-miterlimit="2" class="trace scatter trace3b5ef6" opacity="1"><g class="errorbars"><g class="errorbar"><path stroke="#FF7F0E" stroke-opacity="1" stroke-width="2" d="M393.79,138.94h8m-4,0V149.5m-4,0h8" class="yerror" vector-effect="non-scaling-stroke"/></g><g class="errorbar"><path stroke="#FF7F0E" stroke-opacity="1" stroke-width="2" d="M353.34,165.33h8m-4,0V180.4m-4,0h8" class="yerror" vector-effect="non-scaling-stroke"/></g><g class="errorbar"><path stroke="#FF7F0E" stroke-opacity="1" stroke-width="2" d="M312.9,194.72h8m-4,0V205.28m-4,0h8" class="yerror" vector-effect="non-scaling-stroke"/></g><g class="errorbar"><path stroke="#FF7F0E" stroke-opacity="1" stroke-width="2" d="M272.46,222.61h8m-4,0V231.66m-4,0h8" class="yerror" vector-effect="non-scaling-stroke"/></g><g class="errorbar"><path stroke="#FF7F0E" stroke-opacity="1" stroke-width="2" d="M232.01,246.73h8m-4,0V258.8m-4,0h8" class="yerror" vector-effect="non-scaling-stroke"/></g><g class="errorbar"><path stroke="#FF7F0E" stroke-opacity="1" stroke-width="2" d="M191.57,276.89h8m-4,0V285.93m-4,0h8" class="yerror" vector-effect="non-scaling-stroke"/></g><g class="errorbar"><path stroke="#FF7F0E" stroke-opacity="1" stroke-width="2" d="M151.13,304.02h8m-4,0V316.08m-4,0h8" class="yerror" vector-effect="non-scaling-stroke"/></g><g class="errorbar"><path stroke="#FF7F0E" stroke-opacity="1" stroke-width="2" d="M110.69,331.16h8m-4,0V343.22m-4,0h8" class="yerror" vector-effect="non-scaling-stroke"/></g><g class="errorbar"><path stroke="#FF7F0E" stroke-opacity="1" stroke-width="2" d="M70.24,361.31h8m-4,0V371.86m-4,0h8" class="yerror" vector-effect="non-scaling-stroke"/></g><g class="errorbar"><path stroke="#FF7F0E" stroke-opacity="1" stroke-width="2" d="M29.799999999999997,388.45h8m-4,0V399m-4,0h8" class="yerror" vector-effect="non-scaling-stroke"/></g></g><g class="lines"><path fill="none" stroke="#FF7F0E" stroke-opacity="1" stroke-width="2" d="M397.79,144.22L357.34,172.86L316.9,200L276.46,227.14L236.01,252.77L155.13,310.05L114.69,337.19L74.24,366.59L33.8,393.72" class="js-line" opacity="1" vector-effect="non-scaling-stroke"/></g><g class="points"><path fill="#FF7F0E" fill-opacity="1" stroke-width="0" d="M3,0A3,3 0 1,1 0,-3A3,3 0 0,1 3,0Z" class="point" opacity="1" transform="translate(397.79,144.22)"/><path fill="#FF7F0E" fill-opacity="1" stroke-width="0" d="M3,0A3,3 0 1,1 0,-3A3,3 0 0,1 3,0Z" class="point" opacity="1" transform="translate(357.34,172.86)"/><path fill="#FF7F0E" fill-opacity="1" stroke-width="0" d="M3,0A3,3 0 1,1 0,-3A3,3 0 0,1 3,0Z" class="point" opacity="1" transform="translate(316.9,200)"/><path fill="#FF7F0E" fill-opacity="1" stroke-width="0" d="M3,0A3,3 0 1,1 0,-3A3,3 0 0,1 3,0Z" class="point" opacity="1" transform="translate(276.46,227.14)"/><path fill="#FF7F0E" fill-opacity="1" stroke-width="0" d="M3,0A3,3 0 1,1 0,-3A3,3 0 0,1 3,0Z" class="point" opacity="1" transform="translate(236.01,252.77)"/><path fill="#FF7F0E" fill-opacity="1" stroke-width="0" d="M3,0A3,3 0 1,1 0,-3A3,3 0 0,1 3,0Z" class="point" opacity="1" transform="translate(195.57,281.41)"/><path fill="#FF7F0E" fill-opacity="1" stroke-width="0" d="M3,0A3,3 0 1,1 0,-3A3,3 0 0,1 3,0Z" class="point" opacity="1" transform="translate(155.13,310.05)"/><path fill="#FF7F0E" fill-opacity="1" stroke-width="0" d="M3,0A3,3 0 1,1 0,-3A3,3 0 0,1 3,0Z" class="point" opacity="1" transform="translate(114.69,337.19)"/><path fill="#FF7F0E" fill-opacity="1" stroke-width="0" d="M3,0A3,3 0 1,1 0,-3A3,3 0 0,1 3,0Z" class="point" opacity="1" transform="translate(74.24,366.59)"/><path fill="#FF7F0E" fill-opacity="1" stroke-width="0" d="M3,0A3,3 0 1,1 0,-3A3,3 0 0,1 3,0Z" class="point" opacity="1" transform="translate(33.8,393.72)"/></g></g></g></g><path fill="none" d="M0,0" class="xlines-above crisp"/><path fill="none" d="M0,0" class="ylines-above crisp"/><g class="xaxislayer-above"><g class="xtick"><text style="white-space:pre" x="0" y="533" fill="#444" fill-opacity="1" font-family="'Open Sans', verdana, arial, sans-serif" font-size="12" text-anchor="middle" transform="translate(113.8,0)">−1</text></g><g class="xtick"><text style="white-space:pre" x="0" y="533" fill="#444" fill-opacity="1" font-family="'Open Sans', verdana, arial, sans-serif" font-size="12" text-anchor="middle" transform="translate(194.69,0)">−0.8</text></g><g class="xtick"><text style="white-space:pre" x="0" y="533" fill="#444" fill-opacity="1" font-family="'Open Sans', verdana, arial, sans-serif" font-size="12" text-anchor="middle" transform="translate(275.57,0)">−0.6</text></g><g class="xtick"><text style="white-space:pre" x="0" y="533" fill="#444" fill-opacity="1" font-family="'Open Sans', verdana, arial, sans-serif" font-size="12" text-anchor="middle" transform="translate(356.46,0)">−0.4</text></g><g class="xtick"><text style="white-space:pre" x="0" y="533" fill="#444" fill-opacity="1" font-family="'Open Sans', verdana, arial, sans-serif" font-size="12" text-anchor="middle" transform="translate(437.34,0)">−0.2</text></g><g class="xtick"><text style="white-space:pre" x="0" y="533" fill="#444" fill-opacity="1" font-family="'Open Sans', verdana, arial, sans-serif" font-size="12" text-anchor="middle" transform="translate(518.23,0)">0</text></g><g class="xtick"><text style="white-space:pre" x="0" y="533" fill="#444" fill-opacity="1" font-family="'Open Sans', verdana, arial, sans-serif" font-size="12" text-anchor="middle" transform="translate(599.11,0)">0.2</text></g><g class="xtick"><text style="white-space:pre" x="0" y="533" fill="#444" fill-opacity="1" font-family="'Open Sans', verdana, arial, sans-serif" font-size="12" text-anchor="middle" transform="translate(680,0)">0.4</text></g></g><g class="yaxislayer-above"><g class="ytick"><text style="white-space:pre" x="79" y="4.2" fill="#444" fill-opacity="1" font-family="'Open Sans', verdana, arial, sans-serif" font-size="12" text-anchor="end" transform="translate(0,445.48)">−3</text></g><g class="ytick"><text style="white-space:pre" x="79" y="4.2" fill="#444" fill-opacity="1" font-family="'Open Sans', verdana, arial, sans-serif" font-size="12" text-anchor="end" transform="translate(0,370.1)">−2</text></g><g class="ytick"><text style="white-space:pre" x="79" y="4.2" fill="#444" fill-opacity="1" font-family="'Open Sans', verdana, arial, sans-serif" font-size="12" text-anchor="end" transform="translate(0,294.72)">−1</text></g><g class="ytick"><text style="white-space:pre" x="79" y="4.2" fill="#444" fill-opacity="1" font-family="'Open Sans', verdana, arial, sans-serif" font-size="12" text-anchor="end" transform="translate(0,219.34)">0</text></g><g class="ytick"><text style="white-space:pre" x="79" y="4.2" fill="#444" fill-opacity="1" font-family="'Open Sans', verdana, arial, sans-serif" font-size="12" text-anchor="end" transform="translate(0,143.97)">1</text></g></g></g></g><defs id="topdefs-465192"><clipPath id="legend465192"><rect width="95" height="48" x="0" y="0"/></clipPath></defs><g class="layer-above"><g class="shapelayer"><path fill="#000" fill-opacity="0" fill-rule="evenodd" stroke="#000" stroke-dasharray="3 3" stroke-opacity="1" stroke-width="2" d="M477.79,240.45L680,161.3" clip-path="url('#clip465192xy')" data-index="0" opacity="1"/><path fill="#000" fill-opacity="0" fill-rule="evenodd" stroke="#000" stroke-dasharray="3 3" stroke-opacity="1" stroke-width="2" d="M477.79,244.22L680,101" clip-path="url('#clip465192xy')" data-index="1" opacity="1"/></g></g><g class="infolayer"><g class="legend" pointer-events="all" transform="translate(693.02, 100)"><rect width="95" height="48" x="0" y="0" fill="#FFF" fill-opacity="1" stroke="#444" stroke-opacity="1" stroke-width="0" class="bg" shape-rendering="crispEdges"/><g class="scrollbox" clip-path="url('#legend465192')" transform="translate(0, 0)"><g class="groups"><g class="traces" opacity="1" transform="translate(0, 14.5)"><text style="white-space:pre" x="40" y="4.68" fill="#444" fill-opacity="1" class="legendtext user-select-none" font-family="'Open Sans', verdana, arial, sans-serif" font-size="12" text-anchor="start">Desktop</text><g class="layers" opacity="1"><g class="legendlines"><path fill="none" stroke="#1F77B4" stroke-opacity="1" stroke-width="2" d="M5,0h30" class="js-line"/></g><g class="legendsymbols"><g class="legendpoints"><path fill="#1F77B4" fill-opacity="1" stroke-width="0" d="M3,0A3,3 0 1,1 0,-3A3,3 0 0,1 3,0Z" class="scatterpts" opacity="1" transform="translate(20,0)"/></g></g></g><rect width="89.25" height="19" x="0" y="-9.5" fill="#000" fill-opacity="0" class="legendtoggle" cursor="pointer" pointer-events="all"/></g><g class="traces" opacity="1" transform="translate(0, 33.5)"><text style="white-space:pre" x="40" y="4.68" fill="#444" fill-opacity="1" class="legendtext user-select-none" font-family="'Open Sans', verdana, arial, sans-serif" font-size="12" text-anchor="start">Mobile</text><g class="layers" opacity="1"><g class="legendlines"><path fill="none" stroke="#FF7F0E" stroke-opacity="1" stroke-width="2" d="M5,0h30" class="js-line"/></g><g class="legendsymbols"><g class="legendpoints"><path fill="#FF7F0E" fill-opacity="1" stroke-width="0" d="M3,0A3,3 0 1,1 0,-3A3,3 0 0,1 3,0Z" class="scatterpts" opacity="1" transform="translate(20,0)"/></g></g></g><rect width="89.25" height="19" x="0" y="-9.5" fill="#000" fill-opacity="0" class="legendtoggle" cursor="pointer" pointer-events="all"/></g></g></g><rect width="0" height="0" x="0" y="0" fill="#808BA4" fill-opacity="1" class="scrollbar" rx="20" ry="3"/></g><g class="g-gtitle"><text font-family="'Open Sans', verdana, arial, sans-serif" style="white-space:pre" x="400" y="50" fill="#444" class="gtitle" dy="0em" font-size="17" font-weight="normal" opacity="1" text-anchor="middle"><tspan x="400" y="50" class="line" dy="0em"><tspan font-weight="bold">Ad latency injected vs. viewability rate change</tspan></tspan><tspan x="400" y="50" class="line" dy="1.3em">(95% confidence interval error bars)</tspan></text></g><g class="g-xtitle"><text style="white-space:pre" x="380.5" y="572" fill="#444" class="xtitle" font-family="'Open Sans', verdana, arial, sans-serif" font-size="14" font-weight="normal" opacity="1" text-anchor="middle">Ad latency injected (sec)</text></g><g class="g-ytitle"><text font-size="14" style="white-space:pre" x="42" y="310" fill="#444" class="ytitle" font-family="'Open Sans', verdana, arial, sans-serif" font-weight="normal" opacity="1" text-anchor="middle" transform="rotate(-90,42,310)">Viewability rate change (%)</text></g></g></svg>